<?xml version="1.0" encoding="UTF-8" standalone="no"?>
<!DOCTYPE svg PUBLIC "-//W3C//DTD SVG 1.1//EN" "http://www.w3.org/Graphics/SVG/1.1/DTD/svg11.dtd">
<!-- Created with Vectornator (http://vectornator.io/) -->
<svg height="100%" stroke-miterlimit="10" style="fill-rule:nonzero;clip-rule:evenodd;stroke-linecap:round;stroke-linejoin:round;" version="1.1" viewBox="0 0 1024 1024" width="100%" xml:space="preserve" xmlns="http://www.w3.org/2000/svg" xmlns:vectornator="http://vectornator.io" xmlns:xlink="http://www.w3.org/1999/xlink">
<defs/>
<g id="Layer-1" vectornator:layerName="Layer 1" visibility="hidden">
<path d="M373.662 114.354C365.807 114.354 359.44 120.721 359.44 128.575L359.44 140.222C359.44 148.076 365.807 154.443 373.662 154.443L429.006 154.443C436.86 154.443 443.227 160.811 443.227 168.665L443.227 317.445C310.608 348.568 211.784 467.292 211.784 609.405C211.784 775.211 346.168 909.646 511.975 909.646C677.782 909.646 812.216 775.212 812.216 609.405C812.216 467.292 713.341 348.568 580.722 317.445L580.722 168.665C580.722 160.811 587.089 154.443 594.943 154.443L650.338 154.443C658.193 154.443 664.56 148.076 664.56 140.222L664.56 128.575C664.56 120.721 658.193 114.354 650.338 114.354L373.662 114.354Z" fill="#905cc1" fill-rule="nonzero" opacity="1" stroke="#905cc0" stroke-linecap="butt" stroke-linejoin="round" stroke-width="10" vectornator:layerName="Curve 21"/>
<path d="M742.236 518.267C713.084 582.828 676.789 639.148 622.881 640.162C533.139 641.851 536.47 584.067 436.506 584.067C362.006 584.067 317.722 637.439 265.375 703.828C301.706 803.13 396.731 874.147 508.607 874.147C651.786 874.147 767.844 758.037 767.844 614.858C767.844 580.685 761.059 548.142 749.044 518.267L742.236 518.267Z" fill="#ffffff" fill-rule="nonzero" opacity="1" stroke="none" vectornator:layerName="Curve 22"/>
<path d="M362.401 674.529C362.401 643.562 387.505 618.458 418.473 618.458C449.44 618.458 474.544 643.562 474.544 674.529C474.544 705.497 449.44 730.601 418.473 730.601C387.505 730.601 362.401 705.497 362.401 674.529Z" fill="#905cc0" fill-rule="nonzero" opacity="1" stroke="none" vectornator:layerName="Oval 19"/>
<path d="M512 801.847C512 786.542 524.408 774.134 539.714 774.134C555.02 774.134 567.428 786.542 567.428 801.847C567.428 817.153 555.02 829.561 539.714 829.561C524.408 829.561 512 817.153 512 801.847Z" fill="#905cc0" fill-rule="nonzero" opacity="1" stroke="none" vectornator:layerName="Oval 20"/>
<path d="M567.428 696.207C567.428 677.211 582.827 661.813 601.822 661.813C620.817 661.813 636.216 677.211 636.216 696.207C636.216 715.202 620.817 730.601 601.822 730.601C582.827 730.601 567.428 715.202 567.428 696.207Z" fill="#905cc0" fill-rule="nonzero" opacity="1" stroke="none" vectornator:layerName="Oval 21"/>
<path d="M566.685 482.739C566.685 461.27 584.09 443.865 605.56 443.865C627.029 443.865 644.434 461.27 644.434 482.739C644.434 504.209 627.029 521.614 605.56 521.614C584.09 521.614 566.685 504.209 566.685 482.739Z" fill="#ffffff" fill-rule="nonzero" opacity="1" stroke="none" vectornator:layerName="Oval 22"/>
</g>
<g id="Layer-1-copy" vectornator:layerName="Layer 1 copy">
<path d="M346.041 71.1506C338.187 71.1506 331.82 77.5177 331.82 85.3719L331.82 104.277C331.82 112.131 338.187 118.499 346.041 118.499L416.555 118.499C424.409 118.499 430.776 124.866 430.776 132.72L430.776 311.011C274.147 347.769 157.43 487.987 157.43 655.829C157.43 851.655 316.144 1010.43 511.97 1010.43C707.796 1010.43 866.57 851.655 866.57 655.829C866.57 487.987 749.793 347.769 593.164 311.011L593.164 132.72C593.164 124.866 599.531 118.499 607.385 118.499L677.959 118.499C685.813 118.499 692.18 112.131 692.18 104.277L692.18 85.3719C692.18 77.5177 685.813 71.1506 677.959 71.1506L346.041 71.1506Z" fill="#1a0929" fill-rule="nonzero" opacity="1" stroke="#1a0929" stroke-linecap="butt" stroke-linejoin="round" stroke-width="10" vectornator:layerName="Curve 21"/>
<path d="M783.919 548.191C749.49 624.441 706.624 690.957 642.955 692.155C536.967 694.15 540.9 625.904 422.838 625.904C334.849 625.904 282.548 688.939 220.724 767.348C263.633 884.627 375.862 968.502 507.993 968.502C677.094 968.502 814.164 831.371 814.164 662.27C814.164 621.909 806.15 583.476 791.96 548.191L783.919 548.191Z" fill="#ffffff" fill-rule="nonzero" opacity="1" stroke="none" vectornator:layerName="Curve 22"/>
<path d="M335.317 732.744C335.317 696.17 364.966 666.521 401.54 666.521C438.114 666.521 467.763 696.17 467.763 732.744C467.763 769.319 438.114 798.968 401.54 798.968C364.966 798.968 335.317 769.319 335.317 732.744Z" fill="#1a0929" fill-rule="nonzero" opacity="1" stroke="none" vectornator:layerName="Oval 19"/>
<path d="M512 883.113C512 865.036 526.654 850.382 544.731 850.382C562.808 850.382 577.463 865.036 577.463 883.113C577.463 901.19 562.808 915.845 544.731 915.845C526.654 915.845 512 901.19 512 883.113Z" fill="#1a0929" fill-rule="nonzero" opacity="1" stroke="none" vectornator:layerName="Oval 20"/>
<path d="M577.463 758.347C577.463 735.912 595.649 717.725 618.084 717.725C640.518 717.725 658.705 735.912 658.705 758.347C658.705 780.781 640.518 798.968 618.084 798.968C595.649 798.968 577.463 780.781 577.463 758.347Z" fill="#1a0929" fill-rule="nonzero" opacity="1" stroke="none" vectornator:layerName="Oval 21"/>
<path d="M576.586 506.231C576.586 480.875 597.141 460.319 622.498 460.319C647.855 460.319 668.411 480.875 668.411 506.231C668.411 531.588 647.855 552.144 622.498 552.144C597.141 552.144 576.586 531.588 576.586 506.231Z" fill="#ffffff" fill-rule="nonzero" opacity="1" stroke="none" vectornator:layerName="Oval 22"/>
</g>
</svg>
