<svg width="896" height="200" viewBox="0 0 896 200" fill="none" xmlns="http://www.w3.org/2000/svg">
<path fill-rule="evenodd" clip-rule="evenodd" d="M164.54 160.76C174.716 154.899 180.985 144.067 180.985 132.344L180.985 67.656C180.985 55.9334 174.716 45.1013 164.54 39.24L108.387 6.89597C98.2105 1.03467 85.6731 1.03468 75.497 6.89598L19.3432 39.24C9.16714 45.1013 2.89844 55.9334 2.89844 67.656L2.89844 132.344C2.89844 144.067 9.16716 154.899 19.3432 160.76L75.497 193.104C85.6731 198.965 98.2105 198.965 108.387 193.104L164.54 160.76ZM164.54 132.344C164.54 138.205 161.406 143.621 156.318 146.552L126.928 163.48C124.338 164.972 123.043 165.718 121.98 165.607C121.053 165.51 120.211 165.025 119.663 164.272C119.035 163.41 119.035 161.918 119.035 158.934L119.035 125.078C119.035 119.217 122.169 113.801 127.257 110.87L142.993 101.806C145.154 100.562 146.234 99.9392 147.02 99.0683C147.714 98.2978 148.239 97.39 148.558 96.404C148.92 95.2895 148.918 94.0449 148.913 91.5556L148.912 90.8078C148.905 87.0844 148.902 85.2227 148.116 84.1465C147.431 83.2077 146.379 82.6029 145.221 82.4821C143.893 82.3436 142.277 83.2745 139.045 85.1362L119.035 96.662C108.859 102.523 102.59 113.355 102.59 125.078V174.704C102.59 176.434 101.665 178.031 100.164 178.896C95.0761 181.827 88.8074 181.827 83.7194 178.896L27.5656 146.552C22.4776 143.621 19.3432 138.205 19.3432 132.344L19.3432 99.0007C19.3432 96.0167 19.3432 94.5248 19.9713 93.6622C20.5192 92.9099 21.3613 92.4249 22.2883 92.3277C23.3511 92.2162 24.6462 92.9621 27.2366 94.454L56.018 111.031C61.1059 113.961 64.2403 119.378 64.2403 125.239L64.2403 142.503C64.2403 144.992 64.2403 146.237 64.6037 147.35C64.9253 148.336 65.4512 149.243 66.1472 150.012C66.9339 150.881 68.0155 151.502 70.1786 152.743L70.8283 153.115C74.0638 154.971 75.6816 155.9 77.0087 155.759C78.1663 155.636 79.2175 155.029 79.9012 154.089C80.6851 153.012 80.6851 151.15 80.6851 147.426L80.6851 125.239C80.6851 113.516 74.4164 102.684 64.2403 96.8227L22.2149 72.6181C20.4379 71.5947 19.3432 69.7031 19.3432 67.656C19.3432 61.7947 22.4775 56.3786 27.5656 53.448L83.7194 21.104C88.8074 18.1733 95.0761 18.1733 100.164 21.104L129.234 37.8481C131.825 39.3402 133.12 40.0862 133.555 41.0601C133.934 41.9096 133.934 42.8798 133.555 43.7293C133.12 44.7032 131.825 45.4492 129.234 46.9413L99.7095 63.9473C94.6215 66.8779 88.3528 66.8779 83.2647 63.9473L66.7226 54.4192C65.076 53.4708 64.2527 52.9965 63.3765 52.8061C62.6011 52.6376 61.7992 52.6309 61.0211 52.7864C60.1419 52.962 59.3107 53.4224 57.6483 54.343L55.5974 55.4789C52.2726 57.3202 50.6103 58.2409 50.0478 59.4623C49.5574 60.5273 49.5471 61.7507 50.0195 62.8238C50.5613 64.0545 52.2079 65.0029 55.5011 66.8997L75.0424 78.1553C85.2184 84.0166 97.7558 84.0166 107.932 78.1553L150.827 53.448C152.526 52.4695 154.619 52.4695 156.318 53.448C161.406 56.3786 164.54 61.7947 164.54 67.656V132.344Z" fill="black"/>
<path d="M306.691 55.0077C308.783 55.0077 310.478 56.6837 310.478 58.7512V69.5357C310.478 71.5939 308.797 73.2661 306.715 73.2792L281.5 73.438C271.348 73.438 269.133 75.0803 269.133 87.4888V142.503C269.133 144.571 267.438 146.247 265.347 146.247H250.771C248.68 146.247 246.984 144.571 246.984 142.503V79.2773C246.984 62.8543 254.367 55.0077 271.533 55.0077H306.691Z" fill="black"/>
<path d="M394.514 126.539C387.5 141.32 376.057 147.707 363.136 147.707C336.004 147.707 327.144 126.539 327.144 99.1675V58.7512C327.144 56.6837 328.84 55.0077 330.931 55.0077H345.507C347.598 55.0077 349.293 56.6837 349.293 58.7512V99.1675C349.293 117.598 357.415 125.627 371.442 125.627C380.302 125.627 396.913 119.24 396.913 89.1312V58.7512C396.913 56.6837 398.609 55.0077 400.7 55.0077H415.276C417.367 55.0077 419.062 56.6837 419.062 58.7512V142.503C419.062 144.571 417.367 146.247 415.276 146.247H400.7C398.609 146.247 396.913 144.571 396.913 142.503V127.087C396.913 123.329 397.446 118.518 398.163 114.891C398.185 114.781 398.099 114.678 397.985 114.678C397.898 114.678 397.824 114.738 397.807 114.821C397.069 118.451 395.971 123.117 394.514 126.539Z" fill="black"/>
<path d="M460.336 75.8102C467.719 60.2996 482.116 53.5479 494.483 53.5479C518.846 53.5479 528.075 74.7154 528.075 102.087V142.503C528.075 144.571 526.38 146.247 524.289 146.247H509.528C507.437 146.247 505.742 144.571 505.742 142.503V102.087C505.742 85.4816 498.728 75.6277 486.361 75.6277C476.764 75.6277 457.752 82.0145 457.752 112.123V142.503C457.752 144.571 456.057 146.247 453.966 146.247H439.39C437.299 146.247 435.603 144.571 435.603 142.503V58.7512C435.603 56.6837 437.299 55.0077 439.39 55.0077H453.966C456.057 55.0077 457.752 56.6837 457.752 58.7512V75.2628C457.752 78.8417 457.22 83.649 456.503 87.2755C456.481 87.3863 456.567 87.4888 456.681 87.4888C456.767 87.4888 456.842 87.4293 456.859 87.3457C457.597 83.7205 458.697 79.2321 460.336 75.8102Z" fill="black"/>
<path d="M571.182 67.9636C579.488 59.2047 594.254 53.9128 606.436 53.9128C635.414 54.0953 652.21 69.0585 652.21 100.627C652.21 132.196 635.414 147.342 606.436 147.342C594.254 147.342 579.488 142.05 571.182 133.291C568.259 130.402 566.241 125.189 564.947 121.367C564.922 121.295 564.855 121.247 564.778 121.247C564.658 121.247 564.572 121.361 564.607 121.475C565.869 125.628 566.937 130.629 566.937 134.751V160.241C566.937 162.308 565.241 163.984 563.15 163.984H548.568C546.479 163.984 544.785 162.312 544.782 160.247L544.609 58.7571C544.606 56.6873 546.302 55.0077 548.396 55.0077H563.15C565.241 55.0077 566.937 56.6837 566.937 58.7512V66.5038C566.937 70.6186 565.872 75.9611 564.613 79.7801C564.576 79.8924 564.661 80.0072 564.78 80.0072C564.856 80.0072 564.922 79.9605 564.946 79.8898C566.24 76.0678 568.259 70.8536 571.182 67.9636ZM599.975 130.189C621.94 130.189 630.061 119.058 630.061 100.627C630.061 81.832 621.755 72.5256 599.975 71.9782C582.995 71.9782 566.937 83.1094 566.937 100.627C566.937 118.145 582.995 130.189 599.975 130.189Z" fill="black"/>
<path d="M772.385 100.627C772.385 132.196 747.468 147.342 718.49 147.342C689.696 147.342 664.778 132.196 664.778 100.627C664.778 69.0585 689.696 53.9128 718.49 53.9128C747.468 53.9128 772.385 69.241 772.385 100.627ZM750.236 100.627C750.236 82.197 735.286 71.7957 718.49 71.7957C702.247 71.7957 686.927 82.197 686.927 100.627C686.927 119.605 701.14 129.276 718.49 129.276C735.47 129.276 750.236 119.24 750.236 100.627Z" fill="black"/>
<path d="M866.707 133.656C858.217 142.05 843.451 147.342 831.269 147.342C802.291 147.342 785.494 132.196 785.494 100.627C785.494 69.0585 802.291 54.0953 831.269 53.9128C843.451 53.9128 858.401 59.5696 866.707 68.3286C869.63 71.218 871.468 76.4307 872.758 80.2526C872.782 80.3246 872.85 80.3722 872.926 80.3722C873.046 80.3722 873.132 80.2584 873.098 80.145C871.836 75.9918 870.768 70.9903 870.768 66.8688V39.7592C870.768 37.6917 872.463 36.0156 874.554 36.0156H889.315C891.406 36.0156 893.101 37.6917 893.101 39.7592V142.503C893.101 144.571 891.406 146.247 889.315 146.247H874.554C872.463 146.247 870.768 144.571 870.768 142.503V135.116C870.768 130.979 871.844 125.778 873.112 121.96C873.143 121.865 873.1 121.761 873.009 121.716C872.897 121.661 872.763 121.716 872.724 121.832C871.435 125.645 869.604 130.792 866.707 133.656ZM837.729 129.276C854.71 129.276 870.768 118.145 870.768 100.627C870.768 83.1094 854.71 71.0658 837.729 71.0658C815.765 71.6132 807.459 82.0145 807.459 100.627C807.459 119.24 815.949 129.276 837.729 129.276Z" fill="black"/>
</svg>
